<?xml version="1.0" encoding="utf-8"?>
<!-- Generator: Adobe Illustrator 22.0.0, SVG Export Plug-In . SVG Version: 6.00 Build 0)  -->
<svg version="1.1" id="Capa_1" xmlns:svgjs="http://svgjs.com/svgjs"
	 xmlns="http://www.w3.org/2000/svg" xmlns:xlink="http://www.w3.org/1999/xlink" x="0px" y="0px" viewBox="0 0 512 512"
	 style="enable-background:new 0 0 512 512;" xml:space="preserve">
<style type="text/css">
	.st0{fill:#C1C1C1;}
</style>
<g>
	<path class="st0" d="M256,100c-5.5,0-10,4.5-10,10s4.5,10,10,10s10-4.5,10-10S261.5,100,256,100z"/>
	<path class="st0" d="M90,280c5.5,0,10-4.5,10-10s-4.5-10-10-10s-10,4.5-10,10S84.5,280,90,280z"/>
	<path class="st0" d="M336,0c-90,0-163.9,62.1-169.6,140.3C80.6,144.6,0,206.4,0,290c0,34.9,13.8,68.8,39,95.6
		c5,20.5-1.1,42.3-16.1,57.3c-2.9,2.9-3.7,7.2-2.2,10.9c1.5,3.7,5.2,6.2,9.2,6.2c28.5,0,56-11.2,76.4-30.9
		c19.9,6.8,45.9,10.9,69.6,10.9c90,0,163.9-62.1,169.6-140.2c20.9-0.9,42.7-4.8,59.9-10.7C426,308.8,453.5,320,482,320
		c4,0,7.7-2.4,9.2-6.2c1.5-3.7,0.7-8-2.2-10.9c-15-15-21.1-36.8-16.1-57.3c25.2-26.8,39-60.7,39-95.6C512,63.1,425.2,0,336,0z
		 M176,420c-23.6,0-50.5-4.6-68.5-11.8c-3.9-1.5-8.3-0.5-11.1,2.5c-12.1,13.2-27.8,22.4-44.9,26.6c9.4-18.1,11.8-39.3,6.1-59.5
		c-0.5-1.6-1.3-3-2.4-4.2C32.5,350.3,20,320.6,20,290c0-70.5,71.4-130,156-130c79.9,0,150,55.5,150,130C326,361.7,258.7,420,176,420
		z M456.8,233.6c-1.2,1.2-2,2.6-2.4,4.2c-5.7,20.2-3.3,41.5,6.1,59.5c-17.1-4.2-32.8-13.4-44.9-26.6c-2.8-3.1-7.2-4.1-11.1-2.5
		c-15.6,6.2-37.9,10.5-58.9,11.6c-2.9-37.8-21.8-73.4-54-99.8H422c5.5,0,10-4.5,10-10s-4.5-10-10-10H260.8
		c-22.7-11.6-48.2-18.3-74.4-19.7C192.2,73.1,257.1,20,336,20c84.6,0,156,59.5,156,130C492,180.6,479.5,210.3,456.8,233.6z"/>
	<path class="st0" d="M256,260H130c-5.5,0-10,4.5-10,10s4.5,10,10,10h126c5.5,0,10-4.5,10-10S261.5,260,256,260z"/>
	<path class="st0" d="M256,320H90c-5.5,0-10,4.5-10,10s4.5,10,10,10h166c5.5,0,10-4.5,10-10S261.5,320,256,320z"/>
	<path class="st0" d="M422,100H296c-5.5,0-10,4.5-10,10s4.5,10,10,10h126c5.5,0,10-4.5,10-10S427.5,100,422,100z"/>
</g>
</svg>
