<?xml version="1.0" encoding="utf-8"?>
<!-- Generator: Adobe Illustrator 22.0.0, SVG Export Plug-In . SVG Version: 6.00 Build 0)  -->
<svg version="1.1" id="Capa_1" xmlns="http://www.w3.org/2000/svg" xmlns:xlink="http://www.w3.org/1999/xlink" x="0px" y="0px"
	 viewBox="0 0 512 512" style="enable-background:new 0 0 512 512;" xml:space="preserve">
<style type="text/css">
	.st0{fill:#FFFFFF;}
</style>
<g>
	<g>
		<g>
			<rect x="247.5" y="298.7" class="st0" width="17.1" height="51.2"/>
			<rect x="213" y="366.6" class="st0" width="17.7" height="17.7"/>
			<path class="st0" d="M492.4,284.1c-1.6-1.6-3.8-2.5-6-2.5h-34.1c-2.3,0-4.4,0.9-6,2.5s-2.5,3.8-2.5,6V384h-17.1v-25.6
				c0-2.3-0.9-4.4-2.5-6c-1.6-1.6-3.8-2.5-6-2.5H384v-128c0-2.3-0.9-4.4-2.5-6s-3.8-2.5-6-2.5h-34.1c-2.3,0-4.4,0.9-6,2.5
				c-1.6,1.6-2.5,3.8-2.5,6v93.9h-17.1V110.9c0-2.3-0.9-4.4-2.5-6s-3.8-2.5-6-2.5h-25.6V8.5c0-2.3-0.9-4.4-2.5-6s-3.8-2.5-6-2.5
				h-34.1c-2.3,0-4.4,0.9-6,2.5s-2.5,3.8-2.5,6v93.9h-25.6c-2.3,0-4.4,0.9-6,2.5s-2.5,3.8-2.5,6v204.8h-17.1v-93.9
				c0-2.3-0.9-4.4-2.5-6s-3.8-2.5-6-2.5h-34.1c-2.3,0-4.4,0.9-6,2.5s-2.5,3.8-2.5,6v136.5H93.9c-2.3,0-4.4,0.9-6,2.5s-2.5,3.8-2.5,6
				v25.6H68.3V290.1c0-2.3-0.9-4.4-2.5-6s-3.8-2.5-6-2.5H25.6c-2.3,0-4.4,0.9-6,2.5s-2.5,3.8-2.5,6v145.1c0,2.3,0.9,4.4,2.5,6
				s3.8,2.5,6,2.5h59.7v25.6c0,2.3,0.9,4.4,2.5,6c1.6,1.6,3.8,2.5,6,2.5h59.7v25.6c0,2.3,0.9,4.4,2.5,6c1.6,1.6,3.8,2.5,6,2.5h42.7
				c2.3,0,4.4-0.9,6-2.5c1.6-1.6,2.5-3.8,2.5-6v-25.6h17.1v25.6c0,2.3,0.9,4.4,2.5,6c1.6,1.6,3.8,2.5,6,2.5h34.1
				c2.3,0,4.4-0.9,6-2.5c1.6-1.6,2.5-3.8,2.5-6v-25.6h17.1v25.6c0,2.3,0.9,4.4,2.5,6c1.6,1.6,3.8,2.5,6,2.5h34.1
				c2.3,0,4.4-0.9,6-2.5c1.6-1.6,2.5-3.8,2.5-6v-25.6h68.3c2.3,0,4.4-0.9,6-2.5c1.6-1.6,2.5-3.8,2.5-6v-25.6h59.7
				c2.3,0,4.4-0.9,6-2.5c1.6-1.6,2.5-3.8,2.5-6V290.1C494.9,287.9,494,285.7,492.4,284.1z M51.2,316H34.1v-17.4h17.1V316z
				 M162.1,247.8h-17.1v-17.4h17.1V247.8z M196.3,494.9h-17.4v-17.4h17.4V494.9z M230.7,460.8H213v-17.4h17.7V460.8z M299,460.8
				h-17.7v-17.4H299V460.8z M315.4,392.5c0,4.5-3.7,8.2-8.2,8.2h-34.1c-4.5,0-8.2-3.7-8.2-8.2v-25.6h-17.7v25.6
				c0,4.5-3.7,8.2-8.2,8.2h-34.1c-4.5,0-8.2-3.7-8.2-8.2v-34.1c0-4.5,3.7-8.2,8.2-8.2h25.6v-60c0-2.3,0.9-4.4,2.5-6s3.8-2.5,6-2.5
				h34.1c2.3,0,4.4,0.9,6,2.5s2.5,3.8,2.5,6v60h25.6c4.5,0,8.2,3.7,8.2,8.2L315.4,392.5L315.4,392.5z M332.8,494.9h-17.1v-17.4h17.1
				V494.9z M366.9,247.8h-17.1v-17.4h17.1V247.8z M477.9,316h-17.1v-17.4h17.1L477.9,316L477.9,316z"/>
			<rect x="281.3" y="366.6" class="st0" width="17.7" height="17.7"/>
		</g>
	</g>
</g>
</svg>
