<svg id="Layer_1" enable-background="new 0 0 512 512" height="512" viewBox="0 0 512 512" width="512" xmlns="http://www.w3.org/2000/svg"><g><g><path clip-rule="evenodd" d="m346.079 209.159-77.943 146.851 20.212 10.724c2.246 1.185 4.996.268 6.243-1.916l84.063-149.077c-12.209-.35-23.231-2.946-32.575-6.582zm131.337-178.201-21.881-11.59-6.82-3.616-78.365 147.656c3.194-1.69-2.421 7.623 1.288 7.088 1.288 1.288 7.417 3.101 7.469 3.091 1.525-.227 4.595-1.803 6.181-1.803 7.798 0 15.247-9.416 20.892-4.831l73.153-129.761c1.246-2.216.329-5.049-1.917-6.234z" fill="#e29d7b" fill-rule="evenodd"/></g><g><path clip-rule="evenodd" d="m319.274 192.057-73.287 147.006c-1.123 2.267-.319 5.048 1.926 6.233l20.222 10.714 77.943-146.852c-12.083-4.728-21.365-11.229-26.804-17.101zm122.611-179.93-21.881-11.59c-2.246-1.185-5.11-.35-6.233 1.916l-66.714 133.892-12.414 24.848c3.163-1.01 6.459 11.363 9.951 11.363 5.996 0 9.086-1.803 13.907 1.03.587.329 2.019 1.748 2.586 2.129.783.515 5.954-2.459 6.686-1.872 1.659-1.298.711-9.467 2.575-10.436l78.366-147.656z" fill="#e29d7b" fill-rule="evenodd"/></g><g><path clip-rule="evenodd" d="m314.067 180.595c-14.573-13.321-33.964-21.473-55.277-21.473-7.981 0-15.903 1.152-23.559 3.456-8.868 2.658-17.086 6.764-24.416 12.081 11.913 6.882 20.781 18.313 24.239 32.284 18.83-10.19 51.079 14.916 65.209 33.259h28.821 11.558c-.03-5.169-.562-10.249-1.537-15.152-2.601-13.173-8.336-25.195-16.435-35.267-1.182-1.447-2.394-2.865-3.665-4.253-1.568-1.715-3.224-3.34-4.938-4.935z" fill="#f37c7c" fill-rule="evenodd"/></g><g><path clip-rule="evenodd" d="m288.35 211.875c-7.479-7.621-17.884-12.376-29.56-12.376-8.838 0-17.056 2.688-23.736 7.443-.059.059-6.917 41.234-9.075 45.546l74.284-12.287c-.089-3.928-.709-7.739-1.803-11.313-1.952-6.498-5.469-12.287-10.11-17.013z" fill="#ffd772" fill-rule="evenodd"/></g><g><path clip-rule="evenodd" d="m59.262 185.144c.148-.148.266-.295.414-.443-.148.148-.266.295-.414.443zm41.354-44.689c-17.322-10.958-44.014-16.039-73.988-4.519-4.316 1.654-9.962 2.658-2.069 8.773 14.396 11.135 25.924 25.284 34.703 40.436.148-.148.266-.295.414-.443 8.75-9.718 32.279-7.68 45.256-9.009l5.173-8.891c.029-10.87-13.923-19.022-9.489-26.347z" fill="#4fc9af" fill-rule="evenodd"/></g><g><path clip-rule="evenodd" d="m257.549 90.655c-13.45-1.625-57.109 15.979-76.648 47.614 5.262 7.68-.03 29.005 0 40.968 7.745.797 23.53-8.3 29.914-4.578 9.311-6.764 20.13-11.608 31.836-13.941 9.903-16.275 17.145-34.174 23.47-56.002 3.754-12.968-4.286-13.529-8.572-14.061z" fill="#4fc9af" fill-rule="evenodd"/></g><g><path clip-rule="evenodd" d="m365.087 166.831c-5.587-4.49-12.711-7.177-20.455-7.177-1.153 0-2.306.059-3.429.177-12.445 1.3-22.791 9.54-27.136 20.764 16.76 15.359 9.43 49.12 9.636 71.893l51.464-2.836 28.939-9.452c14.514 0 16.731-7.739 24.83-15.891 4.936-4.933 3.252-21.208 9.075-24.545-4.523-7.325-11.883-12.76-20.544-14.739-.739-3.338-2.01-6.469-3.725-9.334-5.705-9.599-16.199-16.039-28.17-16.039-1.123 0-2.247.059-3.311.177-6.473.652-12.356 3.162-17.174 7.002z" fill="#a7e9a6" fill-rule="evenodd"/></g><g><path clip-rule="evenodd" d="m438.011 199.765c-5.823 3.338-11.262 7.473-16.199 12.435-8.099 8.123-13.982 17.693-17.706 28.001l34.821 12.287 34.171-12.287c.946-.325 1.98.089 2.956.236 7.863-13.055 11.558-28.09 11.203-43.39-.177-6.616-1.094-7.532-7.715-7.65-14.602-.266-28.939 3.19-41.531 10.368z" fill="#4fc9af" fill-rule="evenodd"/></g><g><path clip-rule="evenodd" d="m457.284 338.736-190.187-20.499-200.031 20.499c18.002 56.593 59.947 102.523 113.982 125.857l89.507 23.718 72.776-23.718c54.006-23.334 95.98-69.264 113.953-125.857z" fill="#fbc7b8" fill-rule="evenodd"/></g><g><path clip-rule="evenodd" d="m343.331 464.593h-162.283v41.765c0 3.101 2.542 5.642 5.646 5.642h150.962c3.133 0 5.675-2.54 5.675-5.642z" fill="#f37c7c" fill-rule="evenodd"/></g><g><path clip-rule="evenodd" d="m344.632 159.654c-1.153 0-2.306.059-3.429.177-12.445 1.3-22.791 9.54-27.136 20.764 1.064.975 2.069 1.979 3.074 2.983 12.858-7.561 32.9-8.92 45.552 5.021 4.789-3.84 10.701-6.38 17.145-7.03 1.094-.089-3.252-.148 3.311-.148 11.735 0 20.721 11.844 20.16 23.009 5.735 1.3 14.159 4.106 18.297 7.975l.207-.207c4.936-4.962 10.375-9.097 16.199-12.435-4.523-7.325-11.883-12.76-20.544-14.739-.739-3.338-2.01-6.469-3.725-9.334-5.705-9.599-16.199-16.039-28.17-16.039-1.123 0-2.247.059-3.311.177-6.474.65-12.356 3.16-17.174 7-5.588-4.487-12.712-7.174-20.456-7.174z" fill="#7fdbae" fill-rule="evenodd"/></g><g><path clip-rule="evenodd" d="m463.255 197.431c.296 14.857-2.306 29.537-7.833 42.77h17.677c1.005 0 1.98.089 2.956.236 7.863-13.055 11.558-28.09 11.203-43.39-.177-6.616-1.094-7.532-7.715-7.65-5.823-.089-11.617.384-17.263 1.477.709 1.3.886 3.338.975 6.557z" fill="#26bb9e" fill-rule="evenodd"/></g><g><path clip-rule="evenodd" d="m257.549 90.655c-1.862-.236-4.316-.089-7.183.414 0 1.654-.266 3.633-.975 6.085-6.326 21.798-13.568 39.698-23.47 56.002-3.754.738-36.506 14.591-36.506 14.591 7.745.798 15.016 3.19 21.401 6.912 9.311-6.764 20.13-11.608 31.836-13.941 9.903-16.275 17.145-34.174 23.47-56.002 3.753-12.968-4.287-13.529-8.573-14.061z" fill="#26bb9e" fill-rule="evenodd"/></g><g><path clip-rule="evenodd" d="m59.262 185.144c.148-.148.266-.295.414-.443-.148.148-.266.295-.414.443zm41.354-44.689c-5.055-3.19-10.937-5.907-17.44-7.827-3.34 6.705-5.262 14.68-5.291 23.954-11.174 1.152-21.313 5.612-29.294 12.524 3.931 5.139 7.479 10.515 10.671 16.039l.414-.443c8.513-9.393 20.426-15.566 33.846-16.954-.001-10.841 2.66-19.968 7.094-27.293z" fill="#26bb9e" fill-rule="evenodd"/></g><g><path clip-rule="evenodd" d="m314.067 180.595c-14.573-13.321-33.964-21.473-55.277-21.473-7.981 0-15.903 1.152-23.559 3.456-8.868 2.658-17.086 6.764-24.416 12.081.414.236.828.473 1.242.738.562-.177 1.153-.354 1.714-.532 7.656-2.304 15.578-3.456 23.559-3.456 21.313 0 40.704 8.152 55.277 21.473 1.714 1.595 3.37 3.22 4.966 4.933 1.241 1.388 2.453 2.806 3.636 4.253 8.099 10.072 13.834 22.094 16.435 35.267.177.945.355 1.92.503 2.865h10.937 11.558c-.03-5.169-.562-10.249-1.537-15.152-2.601-13.173-8.336-25.195-16.435-35.267-1.182-1.447-2.394-2.865-3.665-4.253-1.568-1.713-3.224-3.338-4.938-4.933z" fill="#ee6161" fill-rule="evenodd"/></g><g><path clip-rule="evenodd" d="m343.331 464.593h-48.862v14.178 27.588c0 3.101-2.542 5.642-5.646 5.642h48.833c3.133 0 5.675-2.54 5.675-5.642z" fill="#ee6161" fill-rule="evenodd"/></g><g><path clip-rule="evenodd" d="m408.421 338.736c-17.972 56.593-59.918 102.523-113.953 125.857h48.862c54.006-23.334 95.981-69.264 113.953-125.857z" fill="#fbb49e" fill-rule="evenodd"/></g><g><path clip-rule="evenodd" d="m57.518 276.797c0 21.591 3.34 42.386 9.548 61.939h390.218c6.208-19.553 9.548-40.348 9.548-61.939l-202.455-13.557z" fill="#f37c7c" fill-rule="evenodd"/></g><g><path clip-rule="evenodd" d="m466.832 276.797c-15.312 0-30.653 0-45.965 0h-2.867v.354c-.059 21.473-3.399 42.149-9.577 61.585h48.862c6.206-19.553 9.547-40.347 9.547-61.939z" fill="#ee6161" fill-rule="evenodd"/></g><g><path clip-rule="evenodd" d="m141.467 118.213c-15.992.059-31.954 7.561-40.852 22.241-4.434 7.325-7.094 16.452-7.094 27.292-13.627 1.418-25.717 7.739-34.26 17.397-8.07 9.156-12.977 24.575-12.977 34.942s-1.892 18.726 4.966 20.115l93.025 18.786 87.379-18.786c3.133-6.262 4.966-13.085 4.966-20.115 0-4.578-.532-8.979-1.567-13.144-3.458-13.971-12.326-25.402-24.239-32.284-6.385-3.722-13.657-6.114-21.401-6.912 0-11.962-3.252-21.798-8.513-29.478-9.104-13.231-24.268-19.995-39.433-20.054z" fill="#a7e9a6" fill-rule="evenodd"/></g><g><path clip-rule="evenodd" d="m227.782 190.49c0-.03-.03-.03-.03-.03-3.045-4.49-6.385-7.945-9.311-10.427-.03-.03-.03-.03-.059-.059 3.577 3.043 6.74 6.588 9.4 10.516zm-15.637-15.034c-.089-.059-.177-.118-.266-.177.088.059.177.118.266.177zm-1.33-.798c.355.207.709.414 1.064.62-.651-.383-1.005-.59-1.064-.62zm-29.915-36.389c-9.104-13.233-24.269-19.997-39.433-20.056-11.676.03-23.352 4.076-32.279 11.962 3.34-.709 6.769-1.034 10.169-1.063 15.164.059 30.328 6.823 39.433 20.056 5.262 7.68 8.513 17.515 8.513 29.507 7.774.768 15.016 3.16 21.401 6.882.03.177 18.534 9.156 24.239 32.284 1.892 7.621 2.128 15.064.532 22.359h3.843 11.676 2.66c.296-.561.562-1.152.828-1.713 2.69-5.966 4.05-12.022 4.138-18.195 0-.059 0-.148 0-.207.059-2.57-.118-5.169-.503-7.798-.177-1.093-.355-2.215-.591-3.338-.118-.561-.236-1.093-.384-1.654 0-.03 0-.059-.03-.089 0-.089-.03-.177-.059-.266-1.389-5.671-3.695-10.929-6.74-15.655-.177-.266-.355-.532-.532-.798-2.66-3.928-5.823-7.473-9.4-10.515 0 0-.03 0-.03-.03-.236-.207-.473-.384-.709-.591 0 0 0 0-.03 0 0 0 0 0 0-.03-2.306-1.861-4.227-3.131-5.469-3.869-.443-.266-.887-.532-1.33-.798-6.385-3.722-13.657-6.114-21.401-6.912 0-11.933-3.222-21.769-8.513-29.448.059.059.089.118.148.207-.058-.085-.117-.173-.147-.232z" fill="#7fdbae" fill-rule="evenodd"/></g><path d="m178.007 197.33c-2.111-3.708-6.827-5.003-10.538-2.891l-18.276 10.407v-20.204c0-4.268-3.459-7.726-7.726-7.726s-7.726 3.459-7.726 7.726v20.204l-18.276-10.407c-3.706-2.111-8.426-.818-10.538 2.891-2.111 3.708-.817 8.426 2.891 10.537l25.923 14.762v13.909c0 4.268 3.459 7.726 7.726 7.726s7.726-3.459 7.726-7.726v-13.909l25.922-14.762c3.709-2.112 5.003-6.83 2.892-10.537z" fill="#26bb9e"/><g><path d="m455.535 19.369-74.781 140.65c-3.709.536-7.211 1.7-10.405 3.389-1.865.968-3.606 2.122-5.264 3.42-.731-.587-1.483-1.143-2.266-1.658-.567-.381-1.143-.742-1.731-1.071l80.797-151.972 6.83 3.626z" fill="#ce8b6b"/></g><g><path clip-rule="evenodd" d="m51.251 240.201c-10.05 0-18.297 8.241-18.297 18.283 0 10.072 8.247 18.313 18.297 18.313h6.267 409.314 6.267c10.08 0 18.298-8.241 18.298-18.313 0-9.038-6.681-16.6-15.342-18.047-.975-.148-1.951-.236-2.956-.236-140.617 0-281.232 0-421.848 0z" fill="#365e7d" fill-rule="evenodd"/></g><g><path clip-rule="evenodd" d="m424.236 276.797h42.596 6.267c10.08 0 18.298-8.241 18.298-18.313 0-9.038-6.681-16.6-15.342-18.047-.975-.148-1.951-.236-2.956-.236h-48.803c.975 0 1.951.089 2.897.236 8.691 1.447 15.342 9.009 15.342 18.047-.002 10.072-8.219 18.313-18.299 18.313z" fill="#2b4d66" fill-rule="evenodd"/></g></g></svg>